<svg id="Capa_1" enable-background="new 0 0 512 512" height="512" viewBox="0 0 512 512" width="512" fill="#fff"
    xmlns="http://www.w3.org/2000/svg">
    <g>
        <path d="m57.545 372.077v-8.182c0-4.143-3.357-7.5-7.5-7.5s-7.5 3.357-7.5 7.5v8.182c0 4.143 3.357 7.5 7.5 7.5s7.5-3.358 7.5-7.5z"/>
        <path d="m140.643 256.003c0 63.609 51.749 115.358 115.357 115.358s115.358-51.749 115.358-115.358c0-63.608-51.75-115.358-115.358-115.358s-115.357 51.75-115.357 115.358zm115.357-100.358c55.338 0 100.358 45.021 100.358 100.358s-45.02 100.358-100.358 100.358c-55.337 0-100.357-45.021-100.357-100.358s45.02-100.358 100.357-100.358z"/>
        <path d="m85.672 104.394h-71.255c-7.949 0-14.417 6.467-14.417 14.417v63.403c0 15.086 10.84 27.682 25.138 30.424l-5.145 92.839c-.229 4.136 2.938 7.675 7.073 7.903.142.008.282.012.422.012 3.952 0 7.261-3.091 7.481-7.085l5.16-93.108h19.83l8.844 159.586c.595 10.761-7.942 19.828-18.76 19.828-10.754 0-19.356-9.007-18.758-19.827l2.021-36.492c.229-4.136-2.938-7.675-7.073-7.903-4.165-.231-7.675 2.938-7.903 7.073l-2.021 36.492c-1.071 19.309 14.246 35.657 33.735 35.657 19.382 0 34.811-16.234 33.735-35.657l-8.829-159.318c14.298-2.743 25.137-15.338 25.137-30.424v-63.403c.002-7.95-6.466-14.417-14.415-14.417zm-.583 77.82c0 8.814-7.171 15.985-15.985 15.985h-38.119c-8.814 0-15.985-7.171-15.985-15.985v-62.82h13.608v58.043c0 4.142 3.357 7.5 7.5 7.5s7.5-3.358 7.5-7.5v-58.043h12.872v58.043c0 4.142 3.357 7.5 7.5 7.5s7.5-3.358 7.5-7.5v-58.043h13.608v62.82z"/>
        <path d="m474.159 381.823c-4.143 0-7.5 3.357-7.5 7.5v8.181c0 4.143 3.357 7.5 7.5 7.5s7.5-3.357 7.5-7.5v-8.181c0-4.143-3.357-7.5-7.5-7.5z"/>
        <path d="m504.5 162.366c4.143 0 7.5-3.358 7.5-7.5v-59.689c0-6.325-3.552-11.935-9.27-14.639s-12.309-1.893-17.198 2.121l-43.293 35.531c-3.764 3.088-5.922 7.65-5.922 12.519v136.988c0 6.955 4.337 12.904 10.444 15.317l-6.337 114.369c-1.071 19.308 14.246 35.656 33.735 35.656 19.338 0 34.814-16.197 33.734-35.656l-6.338-114.369c6.107-2.414 10.445-8.363 10.445-15.317v-82.844c0-4.142-3.357-7.5-7.5-7.5s-7.5 3.358-7.5 7.5v82.844c0 .814-.662 1.477-1.477 1.477h-42.73c-.813 0-1.476-.662-1.476-1.477v-136.988c0-.359.159-.695.437-.923l43.294-35.532c.79-.653 1.952-.094 1.952.923v59.688c0 4.143 3.357 7.501 7.5 7.501zm-30.341 255.674c-10.731 0-19.359-8.984-18.759-19.826l6.319-114.04h24.878l6.319 114.04c.595 10.735-7.92 19.826-18.757 19.826z"/>
        <path d="m256 104.156c-4.143 0-7.5 3.358-7.5 7.5s3.357 7.5 7.5 7.5c75.458 0 136.848 61.389 136.848 136.847s-61.39 136.847-136.848 136.847-136.847-61.39-136.847-136.847c0-65.779 46.508-120.801 108.411-133.881 4.053-.856 6.644-4.836 5.787-8.888-.856-4.053-4.838-6.643-8.889-5.788-68.853 14.548-120.31 75.718-120.31 148.557 0 83.729 68.118 151.847 151.847 151.847s151.848-68.118 151.848-151.847-68.118-151.847-151.847-151.847z"/>
    </g>
</svg>