<svg id="Capa_1" enable-background="new 0 0 510 510" height="512" viewBox="0 0 510 510" width="512"
    xmlns="http://www.w3.org/2000/svg">
    <g>
        <circle cx="247.002" cy="255" fill="#c47e4e" r="47"/>
        <path d="m294.002 255c0 25.53-20.45 46.37-45.84 46.98v-93.96c25.39.61 45.84 21.45 45.84 46.98z" fill="#a05f4b"/>
        <path d="m328.682 137.61c-83.815-58.41-202.6-12.853-222.54 92.529 4.653 74.485 3.942 66.314 4.77 68.87 18.848 58.3 73.255 98.991 136.09 98.991 78.82 0 143-64.125 143-143 0-46.75-22.93-90.64-61.32-117.39zm-81.68 230.39c-48.59 0-91.35-30.66-106.97-76.48l-3.71-59.439c16.427-79.787 109.405-115.742 175.21-69.85 30.35 21.14 48.47 55.819 48.47 92.77 0 62.697-51.081 112.999-113 112.999z" fill="#f1f6ff"/>
        <path d="m390.002 255c0 78.46-63.52 142.37-141.84 142.99v-30.01c61.78-.61 111.84-51.061 111.84-112.98 0-61.231-49.306-112.385-111.84-112.99v-30c78.942.6 141.84 65.001 141.84 142.99z" fill="#dfe5f2"/>
        <path d="m480.082 201.93c-.343-1.5 2.399 5.81-23.99-62.79-55.684-98.699-166.851-142.488-270.09-115.27-1.49.387 5.506-2.502-61.49 25.87-135.162 81.665-155.479 265.292-46.51 374.26 56.06 56.059 138.249 83.258 223.12 63.84 68.296-26.272 61.337-23.523 62.68-24.28 92.91-52.125 139.602-159.086 116.28-261.63zm-130.03 234.95-57.67 22.18c-134.482 29.866-254.38-74.397-254.38-204.06 0-73.52 37.44-140.16 100.2-178.48l56.46-23.91c90.693-23.435 187.03 16.27 234.22 99.35l22.18 57.66c19.93 89.808-21.359 182.026-101.01 227.26z" fill="#f1f6ff"/>
        <path d="m362.862 464.09c-68.604 26.39-61.29 23.647-62.79 23.99-16.91 3.85-34.37 5.83-51.91 5.91v-30c14.95-.07 29.81-1.73 44.22-4.931l57.67-22.18c79.672-45.247 120.934-137.479 101.01-227.26l-22.18-57.66c-35.939-63.272-103.54-105.54-180.72-105.95v-30c43.88.2 86.18 12.21 123.26 34.89l.02.01c34.381 21.015 63.336 50.452 84.65 88.229 26.39 68.604 23.647 61.29 23.99 62.79 22.965 100.976-21.404 208.11-117.22 262.162z" fill="#dfe5f2"/>
        <path d="m395.982 68.12c-75.2 106.887-50.876 72.124-118.39 169.18l-24.62-17.13c64.2-92.306 118.369-169.311 118.47-169.26 8.664 5.296 16.805 11.003 24.54 17.21z" fill="#a05f4b"/>
        <circle cx="159.002" cy="47" fill="#ff415b" r="47"/>
        <circle cx="327.002" cy="463" fill="#c83c50" r="47"/>
        <circle cx="119.002" cy="263" fill="#ff415b" r="47"/>
        <circle cx="455.002" cy="175" fill="#c83c50" r="47"/>
    </g>
</svg>